<mxfile host="app.diagrams.net" modified="2023-04-24T09:12:40.907Z" agent="Mozilla/5.0 (Windows NT 10.0; Win64; x64) AppleWebKit/537.36 (KHTML, like Gecko) Chrome/112.0.0.0 Safari/537.36" version="21.2.0" etag="ZVkefWQAQ6FIwlm3vLQY" type="github">
  <diagram name="Page-1" id="4ajjvBw2DK6clNKneoas">
    <mxGraphModel>
      <root>
        <mxCell id="0" />
        <mxCell id="1" parent="0" />
      </root>
    </mxGraphModel>
  </diagram>
</mxfile>
